<svg xmlns="http://www.w3.org/2000/svg" data-name="Layer 1" viewBox="0 0 48 50" x="0px" y="0px"><defs><style>
      .cls-1 {
        stroke-width: 0px;
      }
    </style></defs><path class="cls-1" d="m39,8h-9v-1c0-1.654-1.346-3-3-3h-6c-1.654,0-3,1.346-3,3v1h-9c-1.654,0-3,1.346-3,3v2c0,1.654,1.346,3,3,3h.087l2.296,25.259c.143,1.562,1.493,2.741,3.142,2.741h18.95c1.649,0,3-1.179,3.142-2.741l2.296-25.259h.087c1.654,0,3-1.346,3-3v-2c0-1.654-1.346-3-3-3Zm-19-1c0-.552.449-1,1-1h6c.551,0,1,.448,1,1v1h-8v-1Zm14.625,34.077c-.047.518-.552.923-1.15.923H14.525c-.598,0-1.103-.405-1.15-.923l-2.28-25.077h25.81l-2.28,25.077Zm5.375-28.077c0,.552-.449,1-1,1H9c-.551,0-1-.448-1-1v-2c0-.552.449-1,1-1h30c.551,0,1,.448,1,1v2Z"/><path class="cls-1" d="m17.999,38c.021,0,.042,0,.063-.002.551-.034.97-.509.936-1.061l-1-16c-.035-.552-.504-.965-1.061-.936-.551.034-.97.509-.936,1.061l1,16c.033.53.473.938.997.938Z"/><path class="cls-1" d="m24,38c.552,0,1-.447,1-1v-16c0-.553-.448-1-1-1s-1,.447-1,1v16c0,.553.448,1,1,1Z"/><path class="cls-1" d="m29.938,37.998c.021,0,.042.002.063.002.524,0,.964-.407.997-.938l1-16c.035-.552-.384-1.026-.936-1.061-.551-.026-1.026.384-1.061.936l-1,16c-.035.552.384,1.026.936,1.061Z"/></svg>